<svg width="18" height="18" viewBox="0 0 18 18" fill="none" xmlns="http://www.w3.org/2000/svg">
<g filter="url(#filter0_d_13_860)">
<path fill-rule="evenodd" clip-rule="evenodd" d="M7.69655 0.0695737C7.61815 0.111023 7.54154 0.193183 7.49317 0.287753C7.45049 0.371179 7.30603 0.888855 7.17216 1.43814C7.03832 1.98742 6.91625 2.44761 6.90093 2.4608C6.8856 2.47394 6.74648 2.52928 6.5918 2.58377C6.43711 2.63823 6.18827 2.74363 6.03886 2.81798C5.88945 2.8923 5.75202 2.95312 5.73346 2.95312C5.71489 2.95312 5.35556 2.74623 4.93495 2.49339C3.86079 1.84767 3.8463 1.84162 3.59701 1.93584C3.49123 1.97582 2.06434 3.37053 1.89446 3.6C1.81368 3.70916 1.79297 3.77378 1.79297 3.9169C1.79297 4.086 1.8251 4.15072 2.33297 5.00432L2.87293 5.91191L2.72422 6.25184C2.64245 6.43883 2.54911 6.66517 2.51684 6.75489L2.45809 6.91798L1.43121 7.17275C0.866391 7.31285 0.343336 7.46082 0.26884 7.50157C0.00660937 7.6449 0 7.68175 0 9C0 10.3362 0.00499219 10.3623 0.287613 10.5066C0.371109 10.5492 0.889418 10.6943 1.43937 10.8289C1.98928 10.9635 2.44905 11.0856 2.46108 11.1003C2.47307 11.115 2.53543 11.2693 2.59966 11.4434C2.66386 11.6174 2.76855 11.8639 2.83226 11.9912L2.9481 12.2226L2.45844 13.0422C2.02707 13.7641 1.96875 13.8801 1.96875 14.0166C1.96875 14.1018 1.99143 14.2142 2.01913 14.2664C2.04687 14.3186 2.43854 14.7292 2.88956 15.1787C3.45547 15.7429 3.74411 16.006 3.82103 16.0281C4.01846 16.0847 4.20476 16.0058 5.00639 15.5262L5.78946 15.0577L5.99727 15.1631C6.11156 15.221 6.35948 15.3269 6.54817 15.3982C6.73689 15.4696 6.89991 15.5366 6.91042 15.5471C6.92093 15.5577 7.03888 16.015 7.17254 16.5634C7.30621 17.1118 7.45052 17.6289 7.49324 17.7124C7.63787 17.995 7.66389 18 9 18C10.3361 18 10.3621 17.995 10.5068 17.7124C10.5495 17.6289 10.694 17.1111 10.8278 16.5619C10.9617 16.0126 11.0837 15.5528 11.0991 15.5402C11.1144 15.5275 11.2693 15.4646 11.4434 15.4003C11.6174 15.3361 11.8682 15.2293 12.0008 15.1629L12.2419 15.0422L13.0445 15.5224C13.4904 15.7891 13.9125 16.0173 13.9942 16.0356C14.2419 16.0913 14.3552 16.0074 15.2479 15.1073C16.0167 14.3322 16.0611 14.2803 16.0837 14.1291C16.1152 13.9192 16.0979 13.8817 15.5415 12.9579L15.0774 12.1872L15.2164 11.8856C15.2928 11.7197 15.3913 11.4812 15.4353 11.3555C15.4793 11.2298 15.5249 11.1156 15.5366 11.1017C15.5484 11.0878 16.0085 10.9655 16.5593 10.83C17.11 10.6945 17.6276 10.5495 17.7096 10.5079C17.8106 10.4565 17.887 10.3812 17.9469 10.2741L18.0352 10.1161V8.94076C18.0352 8.29431 18.0219 7.77354 18.0058 7.78352C17.9896 7.79351 17.9518 7.75009 17.9218 7.68709C17.8875 7.61519 17.81 7.54341 17.7138 7.4944C17.6295 7.45147 17.11 7.30547 16.5593 7.16998C16.0085 7.03445 15.5488 6.91221 15.5376 6.89832C15.5263 6.88444 15.4646 6.73066 15.4004 6.55664C15.3362 6.38262 15.2383 6.14971 15.1828 6.03911C15.1274 5.92847 15.082 5.82012 15.082 5.79836C15.082 5.77656 15.294 5.40598 15.5531 4.97482C15.8121 4.54366 16.0437 4.13648 16.0678 4.06993C16.0951 3.99452 16.1018 3.89718 16.0858 3.81139C16.0634 3.69155 15.9532 3.56632 15.231 2.84003C14.7751 2.38141 14.3472 1.98018 14.2801 1.94836C14.0608 1.84426 13.9435 1.88968 13.0543 2.4229C12.6002 2.69518 12.2137 2.91797 12.1954 2.91797C12.177 2.91797 12.0715 2.87262 11.9609 2.81718C11.8503 2.76173 11.6174 2.66382 11.4434 2.59963C11.2693 2.5354 11.1156 2.4737 11.1017 2.46245C11.0878 2.4512 10.9656 1.99146 10.83 1.44074C10.6945 0.890015 10.5489 0.371109 10.5064 0.287613C10.4554 0.187488 10.3837 0.11264 10.296 0.0678862C10.1723 0.00474559 10.0813 0.000104965 8.99262 0.00154637C7.91434 0.00298778 7.81239 0.00833153 7.69655 0.0695737ZM8.52539 5.34874C7.7381 5.44876 6.9743 5.82687 6.40058 6.40058C4.9609 7.84023 4.9609 10.1598 6.40058 11.5994C7.84023 13.0391 10.1598 13.0391 11.5994 11.5994C13.0391 10.1598 13.0391 7.84023 11.5994 6.40058C10.788 5.58918 9.66305 5.20425 8.52539 5.34874ZM0.0158203 9C0.0158203 9.66709 0.0205313 9.94001 0.0262969 9.60645C0.0320977 9.27288 0.0320977 8.72712 0.0262969 8.39355C0.0205313 8.05999 0.0158203 8.33291 0.0158203 9Z" fill="url(#paint0_radial_13_860)"/>
<path d="M16.0858 3.81139C16.0634 3.69155 15.9532 3.56632 15.231 2.84003C14.7751 2.38141 14.3472 1.98018 14.2801 1.94836C14.0608 1.84426 13.9435 1.88968 13.0543 2.4229C12.6002 2.69518 12.2137 2.91797 12.1954 2.91797C12.177 2.91797 12.0715 2.87262 11.9609 2.81718C11.8503 2.76173 11.6174 2.66382 11.4434 2.59963C11.2693 2.5354 11.1156 2.4737 11.1017 2.46245C11.0878 2.4512 10.9656 1.99146 10.83 1.44074L7.60766 0.755444C7.63637 0.652556 7.66181 0.565695 7.68233 0.500407C7.70153 0.439317 7.71236 0.410649 7.71508 0.403431C7.71565 0.401924 7.71587 0.401352 7.71573 0.401616L7.71574 0.401603C7.74543 0.343566 7.78876 0.303608 7.8134 0.290586C7.81418 0.29017 7.81498 0.289706 7.81585 0.289201C7.82651 0.28299 7.84777 0.270611 7.99677 0.262791C8.16353 0.254039 8.45068 0.252271 8.99295 0.251546C9.54065 0.250821 9.82737 0.251719 9.99346 0.260175C10.1395 0.26761 10.1621 0.279721 10.1786 0.288576C10.1799 0.289263 10.1811 0.28993 10.1824 0.290574L10.296 0.0678862L10.1824 0.290575C10.2167 0.308066 10.2531 0.341081 10.2836 0.401028M16.0858 3.81139L15.8401 3.85732C15.8401 3.85729 15.8401 3.85731 15.8401 3.85738L16.0858 3.81139ZM16.0858 3.81139C16.1018 3.89718 16.0951 3.99452 16.0678 4.06993C16.0437 4.13648 15.8121 4.54366 15.5531 4.97482M15.5531 4.97482L15.3388 4.84606M15.5531 4.97482L15.3388 4.84607C15.3388 4.84607 15.3388 4.84606 15.3388 4.84606M15.5531 4.97482C15.294 5.40598 15.082 5.77656 15.082 5.79836C15.082 5.82012 15.1274 5.92847 15.1828 6.03911C15.2383 6.14971 15.3362 6.38262 15.4004 6.55664C15.4646 6.73066 15.5263 6.88444 15.5376 6.89832M15.3388 4.84606C15.4674 4.63188 15.5891 4.42403 15.6812 4.26204C15.7274 4.18092 15.7656 4.11225 15.7934 4.06048C15.815 4.02018 15.8261 3.99792 15.8305 3.98903C15.8326 3.98478 15.8332 3.98359 15.8327 3.98495L15.8327 3.98489C15.8434 3.95523 15.8486 3.90382 15.8402 3.85804C15.8396 3.85659 15.8374 3.85187 15.8319 3.84295C15.8181 3.82067 15.7904 3.78331 15.7331 3.71828C15.6186 3.58818 15.4167 3.38132 15.0537 3.0163L15.0537 3.01629C14.8274 2.78862 14.6086 2.57575 14.4387 2.41651C14.3536 2.33672 14.2822 2.27164 14.2289 2.22531C14.202 2.202 14.1816 2.18496 14.1672 2.1737C14.1645 2.17157 14.1622 2.16984 14.1604 2.16846C14.1295 2.15469 14.1184 2.15368 14.1119 2.15344C14.1024 2.15309 14.0748 2.15415 14.0086 2.17978C13.8654 2.23521 13.6351 2.36607 13.1828 2.6373C12.9549 2.77397 12.7435 2.8985 12.5862 2.98914C12.5078 3.03434 12.4418 3.07174 12.3935 3.09817C12.3697 3.11122 12.3482 3.12268 12.331 3.13134C12.3227 3.13547 12.3124 3.14051 12.3018 3.14505C12.2968 3.14721 12.2881 3.15083 12.2776 3.15436L12.2773 3.15445C12.2739 3.15567 12.2392 3.16797 12.1954 3.16797C12.1575 3.16797 12.126 3.15912 12.1184 3.15701L12.1176 3.15679C12.1044 3.15312 12.0919 3.14886 12.0818 3.1452C12.061 3.13771 12.0376 3.12816 12.014 3.11804C11.9663 3.09752 11.9078 3.07019 11.8489 3.04068L11.8489 3.04067C11.7495 2.99088 11.526 2.89657 11.3568 2.83418L11.3568 2.83416C11.2681 2.80142 11.1839 2.76909 11.1193 2.74318C11.0873 2.73031 11.0586 2.71843 11.0361 2.70855C11.025 2.70371 11.0134 2.69847 11.0029 2.69327L11.0025 2.69312C10.9991 2.69148 10.9704 2.67787 10.9443 2.6567C10.9166 2.63425 10.9003 2.61111 10.8947 2.60289C10.8872 2.59197 10.882 2.58252 10.879 2.57686C10.873 2.56551 10.8688 2.55558 10.8666 2.55011C10.8618 2.53844 10.8576 2.52661 10.8545 2.51737C10.848 2.4979 10.8405 2.4731 10.8324 2.44546C10.8161 2.38936 10.7947 2.31142 10.7699 2.21813C10.7201 2.03107 10.6553 1.7769 10.5873 1.50048L10.5873 1.50046C10.5201 1.22731 10.4505 0.962546 10.3926 0.756524C10.3637 0.65336 10.338 0.566236 10.3174 0.50073C10.2976 0.437849 10.2866 0.408977 10.2841 0.402457C10.2837 0.40131 10.2835 0.400855 10.2836 0.401028M15.3388 4.84606L13.1729 15.3079C13.3932 15.4397 13.607 15.5616 13.7748 15.6522C13.8588 15.6976 13.9296 15.7343 13.9831 15.7602C14.0337 15.7848 14.0536 15.792 14.0534 15.7925C14.0534 15.7927 14.0518 15.7923 14.049 15.7917L14.049 15.7917C14.0926 15.8015 14.1039 15.7991 14.1113 15.7974C14.1241 15.7944 14.1578 15.7827 14.2304 15.729C14.3822 15.6166 14.618 15.3874 15.0704 14.9313L15.2479 15.1073L15.0704 14.9313C15.4585 14.54 15.6532 14.3417 15.7555 14.2218C15.806 14.1628 15.8226 14.1356 15.8286 14.1238L15.829 14.1231C15.8313 14.1185 15.833 14.1152 15.8365 14.092L15.8365 14.092C15.844 14.0421 15.8438 14.0294 15.8424 14.0182C15.841 14.0065 15.8356 13.9797 15.8062 13.9162C15.7435 13.7809 15.6098 13.5558 15.3274 13.0868L15.3274 13.0868L14.8633 12.3161L14.795 12.2028L14.8504 12.0826L14.9893 11.781C15.0635 11.6198 15.1587 11.3889 15.1993 11.2729L15.1993 11.2728C15.2223 11.2073 15.246 11.1439 15.2659 11.0939C15.2758 11.0692 15.2855 11.0459 15.2942 11.0265C15.2985 11.017 15.3036 11.0061 15.3092 10.9956L15.3095 10.9949C15.3126 10.989 15.3254 10.9643 15.3457 10.9403L15.3457 10.9402C15.3678 10.9142 15.39 10.8989 15.3981 10.8934C15.4087 10.8863 15.4179 10.8813 15.4234 10.8784C15.4345 10.8726 15.4442 10.8685 15.4497 10.8663C15.4612 10.8616 15.4729 10.8575 15.4822 10.8544C15.5016 10.8479 15.5264 10.8404 15.5541 10.8324C15.6103 10.816 15.6883 10.7946 15.7816 10.7698C15.9689 10.7201 16.2231 10.6553 16.4995 10.5873L16.4995 10.5873C16.7727 10.52 17.0372 10.4506 17.2428 10.393C17.3457 10.3642 17.4326 10.3387 17.4978 10.3182C17.5581 10.2993 17.5867 10.2886 17.5942 10.2857C17.5959 10.2851 17.5965 10.2849 17.5963 10.285C17.6494 10.258 17.6909 10.2197 17.7286 10.1521C17.7287 10.1521 17.7287 10.1521 17.7287 10.1521L17.7852 10.051V8.94076C17.7852 8.61893 17.7819 8.32934 17.7766 8.12232C17.7744 8.03577 17.7719 7.96526 17.7693 7.91346C17.74 7.87705 17.7154 7.83509 17.6961 7.79474L17.6961 7.79468C17.6962 7.79481 17.6957 7.79385 17.6945 7.79191C17.6936 7.79052 17.6923 7.78864 17.6904 7.78628C17.6861 7.78072 17.6798 7.77362 17.6711 7.76554C17.6534 7.74913 17.6292 7.73189 17.6004 7.71718M10.2836 0.401028L10.5061 0.287731L10.2836 0.401039C10.2836 0.401035 10.2836 0.401031 10.2836 0.401028ZM0.256848 9.83377C0.253603 9.8427 0.248992 9.85381 0.242644 9.86579C0.236364 9.87764 0.22309 9.90057 0.199844 9.92418C0.176859 9.94752 0.129379 9.98614 0.0563938 9.99638C0.0417791 9.99843 0.0278414 9.99926 0.0145726 9.99905C0.0394159 10.3702 0.106521 10.4141 0.287613 10.5066C0.371109 10.5492 0.889418 10.6943 1.43937 10.8289C1.98928 10.9635 2.44905 11.0856 2.46108 11.1003C2.47307 11.115 2.53543 11.2693 2.59966 11.4434C2.66386 11.6174 2.76855 11.8639 2.83226 11.9912M0.256848 9.83377C0.261647 9.98201 0.269751 10.0819 0.283388 10.1534C0.29015 10.1888 0.29687 10.2082 0.301279 10.2182C0.304844 10.2263 0.306902 10.2284 0.307213 10.2287L0.307246 10.2287C0.312368 10.2343 0.324551 10.2447 0.401307 10.2839L0.401325 10.2839C0.401103 10.2838 0.401622 10.284 0.402965 10.2845C0.40988 10.2872 0.438645 10.2981 0.500533 10.3175C0.565928 10.3381 0.652917 10.3637 0.755939 10.3925C0.961676 10.4501 1.22606 10.5193 1.49879 10.586L1.49881 10.586C1.77489 10.6536 2.02895 10.7182 2.21612 10.7679C2.30944 10.7927 2.38755 10.8142 2.4439 10.8307C2.47166 10.8388 2.49668 10.8465 2.51644 10.8531C2.52582 10.8563 2.53788 10.8606 2.54984 10.8656C2.55547 10.8679 2.56553 10.8722 2.57701 10.8784L2.57718 10.8785C2.58014 10.88 2.62054 10.9004 2.65457 10.942L2.65461 10.942C2.67553 10.9676 2.68909 10.9955 2.69126 10.9999L2.69151 11.0004C2.69691 11.0113 2.70232 11.0231 2.7073 11.0343C2.71745 11.0572 2.72954 11.0862 2.74258 11.1184C2.76883 11.1834 2.8014 11.2679 2.8342 11.3568L2.83421 11.3568C2.8961 11.5246 2.99724 11.7622 3.05582 11.8793L2.83226 11.9912M0.256848 9.83377C0.25512 9.78039 0.253821 9.72075 0.252847 9.65391L0.276259 9.61079C0.274967 9.68553 0.273637 9.74827 0.270593 9.77476C0.270201 9.77817 0.269335 9.78529 0.267701 9.79399C0.266888 9.79832 0.265367 9.80585 0.262827 9.81504C0.261931 9.81828 0.260058 9.82495 0.256848 9.83377ZM2.83226 11.9912L2.9481 12.2226L2.45844 13.0422M2.83226 11.9912L3.05583 11.8793L3.17166 12.1107L3.23298 12.2332L3.16271 12.3509L2.67305 13.1704L2.45844 13.0422M2.45844 13.0422L2.67305 13.1704C2.45573 13.5341 2.33872 13.7348 2.27521 13.8612C2.21812 13.9748 2.21852 14.0011 2.21873 14.0145C2.21874 14.0152 2.21875 14.0159 2.21875 14.0166C2.21875 14.0395 2.22209 14.0721 2.22862 14.1044C2.2317 14.1197 2.235 14.1325 2.23796 14.142M2.45844 13.0422C2.02707 13.7641 1.96875 13.8801 1.96875 14.0166C1.96875 14.1018 1.99143 14.2142 2.01913 14.2664L2.2399 14.1491L2.23796 14.142M2.23796 14.142C2.238 14.142 2.23804 14.1421 2.23808 14.1421C2.24932 14.1556 2.26621 14.175 2.28906 14.2003C2.33449 14.2507 2.39834 14.3191 2.4765 14.401C2.63252 14.5645 2.84169 14.778 3.06605 15.0016L3.06606 15.0017C3.34842 15.2831 3.55886 15.4868 3.70711 15.622C3.78155 15.6898 3.83723 15.7376 3.87676 15.7686C3.89083 15.7796 3.90134 15.7873 3.90874 15.7924C3.93533 15.7969 3.98034 15.7943 4.08966 15.748C4.24216 15.6835 4.47381 15.5535 4.87803 15.3117L5.6611 14.8431L5.7795 14.7723L5.90254 14.8347L6.11035 14.9401L5.99727 15.1631L6.11036 14.9401L2.23796 14.142ZM15.5376 6.89832L15.3433 7.05569C15.3433 7.05569 15.3433 7.05569 15.3433 7.0557L15.5376 6.89832ZM15.5376 6.89832C15.5488 6.91221 16.0085 7.03445 16.5593 7.16998C17.11 7.30547 17.6295 7.45147 17.7138 7.4944M17.7138 7.4944L17.6003 7.71715C17.6004 7.71716 17.6004 7.71717 17.6004 7.71718M17.7138 7.4944C17.81 7.54341 17.8875 7.61519 17.9218 7.68709C17.9518 7.75009 17.9896 7.79351 18.0058 7.78352L15.3971 7.10529C15.408 7.11277 15.4175 7.118 15.4231 7.12099C15.4345 7.12699 15.4444 7.1312 15.4499 7.13344C15.4616 7.13824 15.4734 7.14236 15.4826 7.14546C15.5021 7.15199 15.5269 7.15953 15.5545 7.16758C15.6106 7.18393 15.6886 7.20534 15.7819 7.23014C15.9689 7.27988 16.2231 7.34471 16.4995 7.41273L16.4995 7.41274C16.7727 7.47993 17.0376 7.54962 17.2438 7.60758C17.3471 7.6366 17.4344 7.66231 17.5 7.68305C17.5694 7.70495 17.5977 7.71617 17.6002 7.71713C17.6004 7.71719 17.6004 7.71721 17.6004 7.71718M17.7138 7.4944L17.6004 7.71718M7.23374 2.21459C7.28345 2.0272 7.34784 1.77313 7.41505 1.49734L0.276259 8.38921C0.274967 8.31446 0.273637 8.25173 0.270593 8.22524C0.270201 8.22183 0.269335 8.21471 0.267701 8.20601C0.266888 8.20168 0.265368 8.19415 0.262828 8.18497C0.261946 8.18178 0.260119 8.17526 0.257004 8.16665C0.261681 8.02345 0.269418 7.92533 0.282154 7.85434C0.288685 7.81794 0.295299 7.79708 0.300012 7.78553C0.304011 7.77573 0.306516 7.77289 0.306836 7.77253L0.306862 7.7725C0.310323 7.76842 0.319665 7.7587 0.388744 7.72094C0.386207 7.72233 0.387615 7.72182 0.394388 7.71935C0.405588 7.71528 0.431459 7.70586 0.478412 7.69089C0.543094 7.67026 0.630204 7.6444 0.734206 7.61498C0.941849 7.55624 1.21115 7.48491 1.4914 7.4154L1.49141 7.4154L2.51829 7.16062L2.648 7.12844L2.6933 7.0027L2.75204 6.83961L2.75208 6.83951C2.78133 6.75819 2.87179 6.53836 2.95326 6.35204C2.95327 6.35203 2.95327 6.35201 2.95328 6.352L3.10197 6.01211L3.15345 5.89445L3.08778 5.78409L2.54782 4.87649L2.54782 4.87649C2.29134 4.44542 2.16263 4.22605 2.09643 4.09273C2.0643 4.02802 2.053 3.99536 2.04826 3.97668C2.04452 3.96194 2.04297 3.94937 2.04297 3.9169C2.04297 3.85574 2.04776 3.83366 2.05151 3.82197C2.05491 3.81134 2.06254 3.79315 2.09542 3.74872C2.12562 3.70793 2.23281 3.59123 2.39641 3.42318C2.55391 3.26139 2.74997 3.0658 2.94452 2.87564C3.13915 2.68541 3.33097 2.50186 3.48002 2.36398C3.55478 2.29482 3.6172 2.23862 3.66316 2.19922C3.68343 2.18184 3.69884 2.16917 3.70972 2.16064C3.75588 2.14379 3.7656 2.14244 3.77235 2.14211L3.7725 2.1421C3.77518 2.14196 3.79553 2.14083 3.86049 2.1679C4.00777 2.22928 4.25843 2.3784 4.80615 2.70765C5.01741 2.83465 5.2138 2.95042 5.36023 3.03473C5.43323 3.07676 5.49501 3.11166 5.54044 3.1364C5.56282 3.14859 5.58336 3.15947 5.60014 3.16778C5.60815 3.17175 5.61848 3.17671 5.62923 3.18123C5.63437 3.18339 5.64321 3.18698 5.65396 3.19044C5.65407 3.19048 5.65424 3.19054 5.65446 3.19061C5.65947 3.19228 5.69205 3.20312 5.73346 3.20312C5.77716 3.20312 5.81467 3.19084 5.81944 3.18928C5.81966 3.1892 5.81981 3.18916 5.81989 3.18913C5.83322 3.18499 5.84646 3.18014 5.85781 3.17577C5.88108 3.16681 5.90885 3.15505 5.93826 3.14204C5.99771 3.11573 6.07287 3.08029 6.1502 3.04182L6.15024 3.0418C6.29062 2.97194 6.52999 2.87057 6.67481 2.81959L6.67486 2.81957C6.75471 2.79144 6.83134 2.76282 6.89103 2.73908C6.92061 2.72731 6.94792 2.71599 6.97009 2.70606C6.98097 2.70119 6.99293 2.69562 7.0043 2.68975L7.00504 2.68937C7.011 2.68633 7.03811 2.67249 7.0637 2.65055L7.06394 2.65034C7.10132 2.61819 7.12028 2.58162 7.12268 2.577C7.12278 2.5768 7.12285 2.57667 7.1229 2.57659C7.12897 2.56528 7.13328 2.55535 7.13567 2.54964C7.14069 2.53762 7.14499 2.52549 7.14821 2.51599C7.15499 2.49603 7.16271 2.47084 7.17088 2.44295C7.18745 2.38634 7.20896 2.30803 7.23374 2.21459ZM3.68538 2.1697L3.6854 2.1697L3.68538 2.1697ZM3.8899 15.7878C3.89011 15.7878 3.89032 15.7879 3.89053 15.7879L3.88996 15.7878L3.8899 15.7878ZM3.91848 15.7988C3.91975 15.7995 3.92043 15.7999 3.92048 15.7999C3.92054 15.8 3.91989 15.7997 3.91848 15.7988ZM0.27626 9.61077C0.28211 9.27431 0.28211 8.72569 0.27626 8.38923V9.61077ZM8.49389 5.10073L8.49388 5.10073C7.6503 5.20791 6.83576 5.61185 6.22381 6.2238C4.68649 7.76108 4.68649 10.2389 6.22381 11.7762C7.76108 13.3135 10.2389 13.3135 11.7762 11.7762C13.3135 10.2389 13.3135 7.76109 11.7762 6.22381C10.9102 5.35776 9.7083 4.94649 8.49389 5.10073ZM7.12827 15.4243C7.12483 15.4182 7.11148 15.3947 7.08749 15.3707L10.2288 17.6927L10.2288 17.6927C10.2284 17.6931 10.2263 17.6952 10.2182 17.6987C10.2081 17.7031 10.1887 17.7099 10.1533 17.7166C9.99156 17.7475 9.68381 17.75 9 17.75C8.31618 17.75 8.00844 17.7475 7.84669 17.7166C7.81127 17.7099 7.79187 17.7031 7.78182 17.6987C7.77369 17.6952 7.77157 17.6931 7.77122 17.6927L7.77118 17.6927C7.76555 17.6875 7.75507 17.6753 7.71582 17.5985C7.71592 17.5987 7.71571 17.5982 7.71517 17.5968C7.71247 17.5896 7.70163 17.561 7.6824 17.4998C7.66189 17.4346 7.63647 17.3478 7.60779 17.245C7.55052 17.0398 7.48171 16.7762 7.41543 16.5042C7.34842 16.2292 7.28524 15.9767 7.23738 15.7911C7.21349 15.6985 7.19317 15.6216 7.17798 15.5667C7.17047 15.5395 7.16371 15.5158 7.15814 15.4977C7.15547 15.4891 7.15219 15.4788 7.14862 15.469C7.14697 15.4644 7.14391 15.4562 7.1397 15.4469C7.13764 15.4423 7.13384 15.4341 7.12839 15.4245L7.12827 15.4243Z" stroke="#EF2648" stroke-width="0.5"/>
</g>
<defs>
<filter id="filter0_d_13_860" x="-55.5" y="-51.4987" width="129.035" height="128.999" filterUnits="userSpaceOnUse" color-interpolation-filters="sRGB">
<feFlood flood-opacity="0" result="BackgroundImageFix"/>
<feColorMatrix in="SourceAlpha" type="matrix" values="0 0 0 0 0 0 0 0 0 0 0 0 0 0 0 0 0 0 127 0" result="hardAlpha"/>
<feOffset dy="4"/>
<feGaussianBlur stdDeviation="27.75"/>
<feComposite in2="hardAlpha" operator="out"/>
<feColorMatrix type="matrix" values="0 0 0 0 0.937255 0 0 0 0 0.14902 0 0 0 0 0.282353 0 0 0 1 0"/>
<feBlend mode="normal" in2="BackgroundImageFix" result="effect1_dropShadow_13_860"/>
<feBlend mode="normal" in="SourceGraphic" in2="effect1_dropShadow_13_860" result="shape"/>
</filter>
<radialGradient id="paint0_radial_13_860" cx="0" cy="0" r="1" gradientUnits="userSpaceOnUse" gradientTransform="translate(9.01758 9.00067) scale(9.01758 8.99933)">
<stop stop-color="#EF2648"/>
<stop offset="1" stop-color="#891629"/>
</radialGradient>
</defs>
</svg>
