<svg width="18" height="18" viewBox="0 0 18 18" fill="none" xmlns="http://www.w3.org/2000/svg">
<path fill-rule="evenodd" clip-rule="evenodd" d="M7.69655 0.0695737C7.61815 0.111023 7.54154 0.193183 7.49317 0.287753C7.45049 0.371179 7.30603 0.888855 7.17216 1.43814C7.03832 1.98742 6.91625 2.44761 6.90093 2.4608C6.8856 2.47394 6.74648 2.52928 6.5918 2.58377C6.43711 2.63823 6.18827 2.74363 6.03886 2.81798C5.88945 2.8923 5.75202 2.95312 5.73346 2.95312C5.71489 2.95312 5.35556 2.74623 4.93495 2.49339C3.86079 1.84767 3.8463 1.84162 3.59701 1.93584C3.49123 1.97582 2.06434 3.37053 1.89446 3.6C1.81368 3.70916 1.79297 3.77378 1.79297 3.9169C1.79297 4.086 1.8251 4.15072 2.33297 5.00432L2.87293 5.91191L2.72422 6.25184C2.64245 6.43883 2.54911 6.66517 2.51684 6.75489L2.45809 6.91798L1.43121 7.17275C0.866391 7.31285 0.343336 7.46082 0.26884 7.50157C0.00660937 7.6449 0 7.68175 0 9C0 10.3362 0.00499219 10.3623 0.287613 10.5066C0.371109 10.5492 0.889418 10.6943 1.43937 10.8289C1.98928 10.9635 2.44905 11.0856 2.46108 11.1003C2.47307 11.115 2.53543 11.2693 2.59966 11.4434C2.66386 11.6174 2.76855 11.8639 2.83226 11.9912L2.9481 12.2226L2.45844 13.0422C2.02707 13.7641 1.96875 13.8801 1.96875 14.0166C1.96875 14.1018 1.99143 14.2142 2.01913 14.2664C2.04687 14.3186 2.43854 14.7292 2.88956 15.1787C3.45547 15.7429 3.74411 16.006 3.82103 16.0281C4.01846 16.0847 4.20476 16.0058 5.00639 15.5262L5.78946 15.0577L5.99727 15.1631C6.11156 15.221 6.35948 15.3269 6.54817 15.3982C6.73689 15.4696 6.89991 15.5366 6.91042 15.5471C6.92093 15.5577 7.03888 16.015 7.17254 16.5634C7.30621 17.1118 7.45052 17.6289 7.49324 17.7124C7.63787 17.995 7.66389 18 9 18C10.3361 18 10.3621 17.995 10.5068 17.7124C10.5495 17.6289 10.694 17.1111 10.8278 16.5619C10.9617 16.0126 11.0837 15.5528 11.0991 15.5402C11.1144 15.5275 11.2693 15.4646 11.4434 15.4003C11.6174 15.3361 11.8682 15.2293 12.0008 15.1629L12.2419 15.0422L13.0445 15.5224C13.4904 15.7891 13.9125 16.0173 13.9942 16.0356C14.2419 16.0913 14.3552 16.0074 15.2479 15.1073C16.0167 14.3322 16.0611 14.2803 16.0837 14.1291C16.1152 13.9192 16.0979 13.8817 15.5415 12.9579L15.0774 12.1872L15.2164 11.8856C15.2928 11.7197 15.3913 11.4812 15.4353 11.3555C15.4793 11.2298 15.5249 11.1156 15.5366 11.1017C15.5484 11.0878 16.0085 10.9655 16.5593 10.83C17.11 10.6945 17.6276 10.5495 17.7096 10.5079C17.8106 10.4565 17.887 10.3812 17.9469 10.2741L18.0352 10.1161V8.94076C18.0352 8.29431 18.0219 7.77354 18.0058 7.78352C17.9896 7.79351 17.9518 7.75009 17.9218 7.68709C17.8875 7.61519 17.81 7.54341 17.7138 7.4944C17.6295 7.45147 17.11 7.30547 16.5593 7.16998C16.0085 7.03445 15.5488 6.91221 15.5376 6.89832C15.5263 6.88444 15.4646 6.73066 15.4004 6.55664C15.3362 6.38262 15.2383 6.14971 15.1828 6.03911C15.1274 5.92847 15.082 5.82012 15.082 5.79836C15.082 5.77656 15.294 5.40598 15.5531 4.97482C15.8121 4.54366 16.0437 4.13648 16.0678 4.06993C16.0951 3.99452 16.1018 3.89718 16.0858 3.81139C16.0634 3.69155 15.9532 3.56632 15.231 2.84003C14.7751 2.38141 14.3472 1.98018 14.2801 1.94836C14.0608 1.84426 13.9435 1.88968 13.0543 2.4229C12.6002 2.69518 12.2137 2.91797 12.1954 2.91797C12.177 2.91797 12.0715 2.87262 11.9609 2.81718C11.8503 2.76173 11.6174 2.66382 11.4434 2.59963C11.2693 2.5354 11.1156 2.4737 11.1017 2.46245C11.0878 2.4512 10.9656 1.99146 10.83 1.44074C10.6945 0.890015 10.5489 0.371109 10.5064 0.287613C10.4554 0.187488 10.3837 0.11264 10.296 0.0678862C10.1723 0.00474559 10.0813 0.000104965 8.99262 0.00154637C7.91434 0.00298778 7.81239 0.00833153 7.69655 0.0695737ZM8.52539 5.34874C7.7381 5.44876 6.9743 5.82687 6.40058 6.40058C4.9609 7.84023 4.9609 10.1598 6.40058 11.5994C7.84023 13.0391 10.1598 13.0391 11.5994 11.5994C13.0391 10.1598 13.0391 7.84023 11.5994 6.40058C10.788 5.58918 9.66305 5.20425 8.52539 5.34874ZM0.0158203 9C0.0158203 9.66709 0.0205313 9.94001 0.0262969 9.60645C0.0320977 9.27288 0.0320977 8.72712 0.0262969 8.39355C0.0205313 8.05999 0.0158203 8.33291 0.0158203 9Z" fill="white" fill-opacity="0.25"/>
</svg>
